<svg width="984" height="136" viewBox="0, 0, 984, 136" xmlns="http://www.w3.org/2000/svg">
	<defs>
		<g id="stairs">
			<line class="border_str" x1="1" x2="35" y1="0" y2="0" />
			<line class="border_str" x1="1" x2="35" y1="18" y2="18" />
			<line class="border_str" x1="1" x2="35" y1="36" y2="36" />
			<line class="border_str" x1="1" x2="35" y1="54" y2="54" />
			<line class="border_str" x1="1" x2="35" y1="72" y2="72" />
			<line class="border_str" x1="1" x2="35" y1="96" y2="96" />
		</g>

		<g id="shoes_box">
			<rect x="0" y="29" width="77" height="14" fill="rgb(180, 180, 180)"></rect>
			<rect x="0" y="61" width="77" height="14" fill="rgb(180, 180, 180)"></rect>
			<rect x="0" y="93" width="77" height="14" fill="rgb(180, 180, 180)"></rect>
		</g>
	</defs>

	<line class="border" x1="0" x2="980" y1="2" y2="2" />
	<!-- 上のborder -->
	<line class="border" x1="0" x2="0" y1="0" y2="131" />
	<!-- 左のborder -->
	<line class="border" x1="980" x2="980" y1="0" y2="131" />
	<!-- 右のborder -->
	<line class="border" x1="0" x2="980" y1="132" y2="132" />
	<!-- 下のborder -->

	<rect class="class_room" x="2" y="2" width="176" height="128"></rect> <!-- 家庭科室 -->

	<line class="border" x1="211" x2="211" y1="36" y2="132"></line>
	<line class="border_str" x1="246" x2="246" y1="36" y2="129" />
	<line class="border" x1="281" x2="281" y1="0" y2="45"></line>
	<line class="border" x1="281" x2="281" y1="87" y2="132"></line>
	<use transform="matrix(1,0,0,1,0,0)" href="#stairs" x="211" y="36"></use>
	<!-- 西階段 -->
	<use transform="matrix(1,0,0,1,0,0)" href="#shoes_box" x="373" y="4"></use>
	<!-- 靴箱 -->
	<use transform="matrix(1,0,0,1,0,0)" href="#shoes_box" x="534" y="4"></use>
	<!-- 靴箱 -->

	<line class="border" x1="701" x2="701" y1="0" y2="45"></line>
	<line class="border" x1="701" x2="701" y1="87" y2="132"></line>
	<line class="border_str" x1="736" x2="736" y1="36" y2="129" />
	<line class="border" x1="771" x2="771" y1="36" y2="132"></line>
	<use transform="matrix(1,0,0,1,0,0)" href="#stairs" x="736" y="36"></use>
	<!-- 東階段 -->

	<rect class="class_room" x="771" y="36" width="208" height="95"></rect> <!-- 部室 -->

<style>
	.class_room {
		fill: rgb(200, 200, 200);
    	stroke: rgb(180, 180, 180);
    	stroke-linecap: square;
    	stroke-width: 2px;
	}
	.border {
		stroke: rgb(180, 180, 180);
    	stroke-linecap: square;
    	stroke-width: 4px;
	}
	.stairs {
		y: 36px;
		height: 96px;
		fill: blue;
		stroke: rgb(180, 180, 180);
		stroke-linecap: square;
    	stroke-width: 2px;
	}
	.border_str {
		stroke: rgb(180, 180, 180);
    	stroke-linecap: square;
    	stroke-width: 2px;
	}
	.corridor {
		fill: #fffff4;
	}
</style>
</svg>