<svg width="1000" height="1000" viewBox="0, 0, 1000, 1000" xmlns="http://www.w3.org/2000/svg">
	<defs>
		<g id="stairs">
			<line class="border" x1="0" x2="0" y1="-32" y2="95"></line>
			<line class="border_str" x1="1" x2="35" y1="0" y2="0" />
			<line class="border_str" x1="1" x2="35" y1="18" y2="18" />
			<line class="border_str" x1="1" x2="35" y1="36" y2="36" />
			<line class="border_str" x1="1" x2="35" y1="54" y2="54" />
			<line class="border_str" x1="1" x2="35" y1="72" y2="72" />
			<line class="border_str" x1="1" x2="35" y1="96" y2="96" />
			<line class="border_str" x1="35" x2="35" y1="0" y2="95" />
			<line class="border" x1="70" x2="70" y1="-32" y2="95"></line>
		</g>

		<g id="shoes_box">
			<rect x="0" y="29" width="77" height="14" fill="rgb(180, 180, 180)"></rect>
			<rect x="0" y="61" width="77" height="14" fill="rgb(180, 180, 180)"></rect>
			<rect x="0" y="93" width="77" height="14" fill="rgb(180, 180, 180)"></rect>
		</g>
	</defs>

	<line class="border" x1="0" x2="980" y1="2" y2="2" />
	<!-- 上のborder -->
	<line class="border" x1="0" x2="0" y1="0" y2="131" />
	<!-- 左のborder -->
	<line class="border" x1="980" x2="980" y1="0" y2="131" />
	<!-- 右のborder -->
	<line class="border" x1="0" x2="980" y1="132" y2="132" />
	<use transform="matrix(1,0,0,1,0,0)" href="#stairs" x="211" y="36"></use>
	<!-- 西階段 -->
	<use transform="matrix(1,0,0,1,0,0)" href="#shoes_box" x="373" y="4"></use>
	<!-- 靴箱 -->
	<use transform="matrix(1,0,0,1,0,0)" href="#shoes_box" x="534" y="4"></use>
	<!-- 靴箱 -->
	<use transform="matrix(1,0,0,1,0,0)" href="#stairs" x="701" y="36"></use>
	<!-- 東階段 -->


<style>
	.border {
		stroke: rgb(180, 180, 180);
    	stroke-linecap: square;
    	stroke-width: 4px;
	}
	.class_room_s4 {
		y: 36px;
		height: 96px;
		fill: rgb(200, 200, 200);
    	stroke: rgb(180, 180, 180);
    	stroke-linecap: square;
    	stroke-width: 2px;
	}
	.stairs {
		y: 36px;
		height: 96px;
		fill: blue;
		stroke: rgb(180, 180, 180);
		stroke-linecap: square;
    	stroke-width: 2px;
	}
	.border_str {
		stroke: rgb(180, 180, 180);
    	stroke-linecap: square;
    	stroke-width: 2px;
	}
	.corridor {
		fill: #fffff4;
	}
</style>
</svg>